<svg width="17" height="14" viewBox="0 0 17 14" fill="none" xmlns="http://www.w3.org/2000/svg">
<path d="M15 11.6667H13.3333V4.375L8.33333 7.5L3.33333 4.375V11.6667H1.66667V1.66667H2.66667L8.33333 5.20833L14 1.66667H15V11.6667ZM15 0H1.66667C0.741667 0 0 0.741667 0 1.66667V11.6667C0 12.1087 0.175595 12.5326 0.488155 12.8452C0.800716 13.1577 1.22464 13.3333 1.66667 13.3333H15C15.442 13.3333 15.8659 13.1577 16.1785 12.8452C16.4911 12.5326 16.6667 12.1087 16.6667 11.6667V1.66667C16.6667 1.22464 16.4911 0.800716 16.1785 0.488155C15.8659 0.175595 15.442 0 15 0V0Z" fill="#F8F8F8"/>
</svg>
