<svg width="20" height="20" viewBox="0 0 20 20" fill="none" xmlns="http://www.w3.org/2000/svg">
<path d="M12.6 9.6C12.6 10.3956 12.2839 11.1587 11.7213 11.7213C11.1587 12.2839 10.3956 12.6 9.6 12.6C8.80435 12.6 8.04129 12.2839 7.47868 11.7213C6.91607 11.1587 6.6 10.3956 6.6 9.6C6.6 9.429 6.618 9.262 6.649 9.1H5.6V13.097C5.6 13.375 5.825 13.6 6.103 13.6H13.098C13.2312 13.5997 13.3589 13.5466 13.453 13.4523C13.5471 13.358 13.6 13.2302 13.6 13.097V9.1H12.551C12.582 9.262 12.6 9.429 12.6 9.6V9.6ZM9.6 11.6C9.86271 11.5999 10.1228 11.5481 10.3655 11.4475C10.6082 11.3469 10.8287 11.1995 11.0144 11.0137C11.2001 10.8279 11.3474 10.6073 11.4479 10.3646C11.5484 10.1219 11.6001 9.86171 11.6 9.599C11.5999 9.33629 11.5481 9.07617 11.4475 8.83348C11.3469 8.59079 11.1995 8.3703 11.0137 8.18458C10.8279 7.99886 10.6073 7.85156 10.3646 7.75109C10.1219 7.65061 9.86171 7.59893 9.599 7.599C9.06843 7.59913 8.55965 7.81003 8.18458 8.18529C7.80951 8.56055 7.59887 9.06943 7.599 9.6C7.59913 10.1306 7.81003 10.6393 8.18529 11.0144C8.56055 11.3895 9.06943 11.6001 9.6 11.6V11.6ZM12 7.5H13.199C13.2787 7.5 13.3551 7.46843 13.4115 7.41219C13.4679 7.35596 13.4997 7.27966 13.5 7.2V6.001C13.5 5.92117 13.4683 5.84461 13.4118 5.78816C13.3554 5.73171 13.2788 5.7 13.199 5.7H12C11.9202 5.7 11.8436 5.73171 11.7872 5.78816C11.7307 5.84461 11.699 5.92117 11.699 6.001V7.2C11.7 7.365 11.835 7.5 12 7.5V7.5ZM9.6 0C7.05392 0 4.61212 1.01143 2.81177 2.81177C1.01143 4.61212 0 7.05392 0 9.6C0 12.1461 1.01143 14.5879 2.81177 16.3882C4.61212 18.1886 7.05392 19.2 9.6 19.2C10.8607 19.2 12.109 18.9517 13.2738 18.4692C14.4385 17.9868 15.4968 17.2797 16.3882 16.3882C17.2797 15.4968 17.9868 14.4385 18.4692 13.2738C18.9517 12.109 19.2 10.8607 19.2 9.6C19.2 8.33931 18.9517 7.09096 18.4692 5.92624C17.9868 4.76151 17.2797 3.70322 16.3882 2.81177C15.4968 1.92033 14.4385 1.2132 13.2738 0.730757C12.109 0.248311 10.8607 0 9.6 0V0ZM14.6 13.489C14.6 14.1 14.1 14.6 13.489 14.6H5.711C5.1 14.6 4.6 14.1 4.6 13.489V5.711C4.6 5.1 5.1 4.6 5.711 4.6H13.489C14.1 4.6 14.6 5.1 14.6 5.711V13.489V13.489Z" fill="#F8F8F8"/>
</svg>
