<svg width="20" height="18" viewBox="0 0 20 18" fill="none" xmlns="http://www.w3.org/2000/svg">
<path d="M0 13.5713L1.68938 16.4913C1.85735 16.8256 2.11488 17.1067 2.43326 17.3032C2.75164 17.4998 3.11834 17.604 3.4925 17.6044H14.7069L12.3794 13.5713H0ZM20 13.5906C19.9991 13.2027 19.8872 12.8232 19.6775 12.4969L13.105 1.07438C12.9336 0.749888 12.6769 0.478336 12.3626 0.289005C12.0483 0.0996736 11.6882 -0.000253274 11.3213 4.82092e-07H7.84813L17.9981 17.5844L19.6 14.8144C19.9125 14.2838 20.0006 14.0494 20.0006 13.5906H20ZM10.7256 10.7069L6.19125 2.85188L1.65375 10.7069H10.7256Z" fill="#F8F8F8"/>
</svg>
